<svg width="419" height="196" viewBox="0 0 419 196" fill="none" xmlns="http://www.w3.org/2000/svg">
<rect x="143.244" y="114.982" width="127.039" height="16.0808" fill="#FFFE52"/>
<rect x="369.984" y="49.0508" width="32.1617" height="99.7011" fill="#FFFE52"/>
<rect x="273.5" y="16.8889" width="112.566" height="152.768" fill="#FFFE52"/>
<rect x="128.771" y="97.293" width="32.1617" height="51.4587" fill="#FFFE52"/>
<rect x="48.3672" y="16.8893" width="96.485" height="147.944" fill="#FFFE52"/>
<rect x="16.2051" y="49.0507" width="32.1617" height="85.2284" fill="#FFFE52"/>
<rect x="32.2861" y="114.982" width="16.0808" height="41.8102" fill="#FFFE52"/>
<rect width="16.0887" height="16.2148" transform="matrix(-1 0 0 1 402.34 146.741)" fill="#F7A900"/>
<rect width="16.0887" height="16.2148" transform="matrix(-1 0 0 1 402.339 147.278)" fill="#9D5500"/>
<rect width="16.0887" height="16.2148" transform="matrix(-1 0 0 1 402.34 131.197)" fill="#FFFFE5"/>
<rect width="16.0887" height="16.2148" transform="matrix(-1 0 0 1 161.011 146.741)" fill="#F7A900"/>
<rect width="16.0887" height="16.2148" transform="matrix(-1 0 0 1 161.01 147.278)" fill="#9D5500"/>
<rect width="16.0887" height="16.2148" transform="matrix(-1 0 0 1 161.01 131.197)" fill="#FFFFE5"/>
<rect x="369.983" y="16.8888" width="16.0808" height="16.0808" fill="#F7A900"/>
<rect width="16.0887" height="16.2148" transform="matrix(-1 0 0 1 48.3906 17.0236)" fill="#F7A900"/>
<rect x="257.539" y="146.741" width="16.0887" height="16.2148" fill="#F7A900"/>
<rect x="257.54" y="147.278" width="16.0887" height="16.2148" fill="#9D5500"/>
<rect x="257.538" y="131.197" width="16.0887" height="16.2148" fill="#FFFFE5"/>
<rect x="16.2119" y="146.741" width="16.0887" height="16.2148" fill="#F7A900"/>
<rect x="16.2139" y="147.278" width="16.0887" height="16.2148" fill="#9D5500"/>
<rect x="16.2129" y="131.197" width="16.0887" height="16.2148" fill="#FFFFE5"/>
<rect x="161.01" y="130.526" width="96.532" height="16.2148" fill="#F7A900"/>
<rect x="48.3877" y="0.807739" width="321.773" height="16.2148" fill="#F7A900"/>
<rect x="161.011" y="131.063" width="96.532" height="16.2148" fill="#9D5500"/>
<rect x="161.009" y="114.982" width="96.532" height="16.2148" fill="#FFFFE5"/>
<rect width="16.0887" height="16.2148" transform="matrix(-1 0 0 1 386.251 162.956)" fill="#F7A900"/>
<rect width="16.0887" height="16.2148" transform="matrix(-1 0 0 1 386.251 163.492)" fill="#9D5500"/>
<rect width="16.0887" height="16.2148" transform="matrix(-1 0 0 1 386.252 147.412)" fill="#FFFFE5"/>
<rect width="16.0887" height="16.2148" transform="matrix(-1 0 0 1 144.923 162.956)" fill="#F7A900"/>
<rect width="16.0887" height="16.2148" transform="matrix(-1 0 0 1 144.921 163.492)" fill="#9D5500"/>
<rect width="16.0887" height="16.2148" transform="matrix(-1 0 0 1 144.921 147.412)" fill="#FFFFE5"/>
<rect width="80.4433" height="16.2148" transform="matrix(-1 0 0 1 370.163 179.171)" fill="#F7A900"/>
<rect width="80.4433" height="16.2148" transform="matrix(-1 0 0 1 370.162 179.707)" fill="#9D5500"/>
<rect width="80.4433" height="16.2148" transform="matrix(-1 0 0 1 370.16 163.627)" fill="#FFFFE5"/>
<rect width="80.4433" height="16.2148" transform="matrix(-1 0 0 1 128.832 179.172)" fill="#F7A900"/>
<rect width="80.4433" height="16.2148" transform="matrix(-1 0 0 1 128.832 179.707)" fill="#9D5500"/>
<rect width="80.4433" height="16.2148" transform="matrix(-1 0 0 1 128.832 163.627)" fill="#FFFFE5"/>
<rect x="386.252" y="33.2374" width="16.0887" height="16.2148" fill="#F7A900"/>
<rect width="16.0887" height="16.2148" transform="matrix(-1 0 0 1 32.3008 33.2374)" fill="#F7A900"/>
<rect x="273.63" y="162.955" width="16.0887" height="16.2148" fill="#F7A900"/>
<rect x="273.628" y="163.493" width="16.0887" height="16.2148" fill="#9D5500"/>
<rect x="273.632" y="147.412" width="16.0887" height="16.2148" fill="#FFFFE5"/>
<rect x="32.3008" y="162.956" width="16.0887" height="16.2148" fill="#F7A900"/>
<rect x="32.3008" y="163.493" width="16.0887" height="16.2148" fill="#9D5500"/>
<rect x="32.3018" y="147.412" width="16.0887" height="16.2148" fill="#FFFFE5"/>
<rect x="402.34" y="49.4526" width="16.0887" height="97.2886" fill="#F7A900"/>
<rect width="16.0887" height="97.2886" transform="matrix(-1 0 0 1 16.2119 49.4531)" fill="#F7A900"/>
<rect width="16.0808" height="49.8506" transform="matrix(-1 0 0 1 16.2051 97.2932)" fill="#9D5500"/>
<rect width="16.0808" height="49.8506" transform="matrix(-1 0 0 1 418.227 97.2932)" fill="#9D5500"/>
<rect x="128.771" y="16.8888" width="160.808" height="98.0931" fill="#FFFE52"/>
<rect x="370.16" y="33.2371" width="16.0887" height="16.2148" fill="#FFFE52"/>
<rect x="370.162" y="114.312" width="16.0887" height="16.2148" fill="#FFFE52"/>
<rect x="257.418" y="114.982" width="32.1617" height="19.297" fill="#FFFE52"/>
<rect x="128.771" y="113.374" width="16.0808" height="33.7697" fill="#FFFE52"/>
<rect x="257.539" y="98.0969" width="32.1773" height="16.2148" fill="#FFFE52"/>
<rect x="32.3008" y="33.2374" width="16.0887" height="16.2148" fill="#FFFE52"/>
<rect x="72.5215" y="49.3179" width="32.1773" height="97.2886" fill="#BF8130"/>
<rect x="313.852" y="49.3188" width="32.1773" height="32.4295" fill="#3E017C"/>
<rect x="313.853" y="114.178" width="32.1773" height="32.4295" fill="#3E017C"/>
<rect x="40.3467" y="114.178" width="32.4295" height="96.532" transform="rotate(-90 40.3467 114.178)" fill="#BF8130"/>
<rect x="281.677" y="114.177" width="32.4295" height="32.1773" transform="rotate(-90 281.677 114.177)" fill="#7712DD"/>
<rect x="346.03" y="114.178" width="32.4295" height="32.1773" transform="rotate(-90 346.03 114.178)" fill="#7712DD"/>
<rect x="161.01" y="81.748" width="32.1773" height="16.2148" fill="#391F00"/>
<rect x="225.364" y="81.7479" width="32.1773" height="16.2148" fill="#391F00"/>
</svg>
